<?xml version="1.0" encoding="utf-8"?>
<!-- Generator: Adobe Illustrator 16.0.0, SVG Export Plug-In . SVG Version: 6.00 Build 0)  -->
<!DOCTYPE svg PUBLIC "-//W3C//DTD SVG 1.1 Tiny//EN" "http://www.w3.org/Graphics/SVG/1.1/DTD/svg11-tiny.dtd">
<svg version="1.1" baseProfile="tiny" id="Capa_1" xmlns="http://www.w3.org/2000/svg" xmlns:xlink="http://www.w3.org/1999/xlink"
	 x="0px" y="0px" width="309.667px" height="59px" viewBox="0 0 309.667 59" xml:space="preserve">
<g>
	<path fill="#1CCDD1" d="M72.057,53.555l-1.976-7.6c-0.225-0.764,0.231-1.358,1.224-1.081c2.713,0.75,4.805,1.466,8.922,1.466
		c4.111-0.056,7.231-1.962,7.231-5.382v-0.706c0-0.216-0.222-0.276-0.34-0.155c-1.682,1.842-4.695,2.873-8.053,2.873
		c-6.089,0-11.526-3.261-11.526-10.708V12.56c0-0.659,0.449-1.095,1.156-1.095h11.531c0.63,0,1.156,0.488,1.156,1.095v16.076
		c0,1.517,0.697,2.814,2.369,2.814c2.561,0,2.847-1.952,2.847-5.482V12.56c0.047-0.659,0.584-1.095,1.216-1.095h11.58
		c0.587,0,1.113,0.488,1.113,1.095v24.759c0,9.556-3.377,18.422-16.692,18.422C76.867,55.741,72.455,55.242,72.057,53.555z"/>
	<path fill="#8ACC19" d="M153.829,28.486c2.512-3.839,7.144-6.786,12.046-8.26c4.825-1.45,10.329-1.549,14.544,0.266
		c4.774,2.026,8.074,6.569,9.598,11.635c1.557,5.184,1.309,10.788-1.556,15.116c-2.514,3.842-7.177,6.735-12.001,8.185
		c-4.904,1.475-10.376,1.628-14.589-0.191c-4.79-2.028-8.077-6.568-9.639-11.752C150.711,38.419,150.948,32.812,153.829,28.486z
		 M172.701,42.925c3.243-0.975,4.986-3.943,3.933-6.776c-0.648-2.825-3.738-4.341-6.982-3.365c-3.303,0.993-5.048,3.962-3.923,6.644
		C166.305,42.404,169.396,43.918,172.701,42.925z"/>
	<path fill="#8ACC19" d="M201.988,14.177c3.98-2.281,9.452-2.797,14.488-1.886c4.963,0.896,9.899,3.295,12.829,6.826
		c3.349,3.978,4.218,9.519,3.276,14.724c-0.964,5.338-3.717,10.218-8.248,12.773c-3.982,2.282-9.431,2.738-14.395,1.842
		c-5.036-0.911-9.996-3.25-12.923-6.781c-3.353-3.979-4.219-9.515-3.255-14.851C194.703,21.616,197.453,16.731,201.988,14.177z
		 M212.26,35.62c3.323,0.601,6.229-1.253,6.582-4.263c0.698-2.805-1.374-5.555-4.699-6.154c-3.396-0.615-6.303,1.235-6.506,4.128
		C206.79,32.251,208.863,35.005,212.26,35.62z"/>
	<path fill="#8ACC19" d="M251.933,10.679l-0.152,17.113c0,0.436,0.493,0.563,0.678,0.196l4.054-6.004
		c0.383-0.547,1.181-0.843,1.797-0.834l12.923,0.099c0.859,0.021,1.284,0.933,0.842,1.489l-9.098,13.837
		c-0.119,0.309-0.125,0.734-0.009,0.98l9.092,17.2c0.351,0.555-0.024,1.527-0.889,1.527l-12.908-0.119
		c-0.62,0-1.493-0.314-1.786-0.935l-4.246-7.908c-0.174-0.378-0.617-0.198-0.617,0.178l-0.056,7.376
		c-0.011,0.684-0.578,1.228-1.252,1.228l-12.312-0.108c-0.615-0.009-1.217-0.565-1.206-1.239l0.374-44.192
		c0-0.684,0.624-1.17,1.242-1.17l12.311,0.111C251.401,9.515,251.933,10.008,251.933,10.679z"/>
	<path fill="#8ACC19" d="M289.365,53.744c-5.225,0-10.529-0.792-13.599-1.536c-0.678-0.129-1.173-0.614-1.289-1.299l-2.031-9.288
		c-0.189-0.803,0.611-1.358,1.413-1.039c5.176,2.08,13.363,2.763,16.438,2.517c1.347-0.12,1.477-1.168,0.5-1.844
		c-1.856-1.358-18.54-0.672-18.54-12.866c-0.119-8,6.34-11.449,17.236-11.449c5.233,0,10.589,0.8,13.604,1.534
		c0.742,0.12,1.237,0.617,1.356,1.289l2.092,9.296c0.129,0.807-0.745,1.292-1.417,1.055c-5.294-2.102-13.427-3.015-16.441-2.716
		c-1.403,0.128-1.464,1.169-0.611,1.851c1.917,1.364,18.599,0.865,18.66,13.048C306.791,50.233,300.384,53.744,289.365,53.744z"/>
	<path fill="#8ACC19" d="M168.316,11.184c0.617,2.925-1.238,5.8-4.157,6.428c-2.915,0.623-5.792-1.233-6.42-4.149
		c-0.622-2.921,1.229-5.792,4.152-6.424C164.811,6.418,167.671,8.278,168.316,11.184z"/>
	<path fill="#8ACC19" d="M182.072,9.401c0.627,2.917-1.239,5.793-4.154,6.41c-2.912,0.646-5.792-1.219-6.409-4.141
		c-0.632-2.917,1.216-5.791,4.137-6.406C178.565,4.627,181.438,6.485,182.072,9.401z"/>
	<path fill="#1CCDD1" d="M2.596,48.926c0-1.001,0.02-1.712,0.07-2.159l5.61-27.208c0.3-1.589,0.99-2.967,2.091-4.14
		c1.103-1.168,2.475-2.011,4.136-2.502c1.416-0.438,2.813-0.656,4.169-0.656c2.312,0,4.382,0.554,6.195,1.691
		c1.829,1.144,3.036,2.65,3.67,4.533l5.043,14.333l5.079-14.333c0.699-1.903,1.946-3.42,3.755-4.541
		c1.829-1.13,3.886-1.684,6.168-1.684c1.346,0,2.738,0.217,4.184,0.656c1.667,0.492,3.047,1.327,4.114,2.496
		c1.066,1.159,1.777,2.537,2.097,4.147l5.553,27.208c0.093,0.447,0.129,1.158,0.129,2.159c-0.199,1.585-1.029,2.906-2.516,3.956
		c-1.485,1.051-3.212,1.577-5.189,1.577c-0.881,0-1.749-0.11-2.622-0.327c-1.446-0.425-2.638-1.113-3.568-2.051
		c-0.928-0.946-1.483-2.015-1.644-3.213l-2.396-16.444l-6.291,17.227c-0.493,1.398-1.066,2.458-1.756,3.164
		c-0.678,0.712-1.53,1.201-2.557,1.476c-1.099,0.318-2.01,0.476-2.743,0.476c-1.507,0-2.834-0.437-3.965-1.311
		c-1.147-0.861-2.002-2.141-2.58-3.805l-6.376-17.227l-2.344,16.444c-0.163,1.198-0.707,2.267-1.645,3.213
		c-0.935,0.938-2.121,1.625-3.542,2.051c-0.888,0.217-1.762,0.327-2.603,0.327c-1.972,0-3.694-0.525-5.187-1.577
		C3.636,51.833,2.794,50.512,2.596,48.926z"/>
	<path fill="#28C6C6" d="M72.057,53.555l-1.976-7.6c-0.225-0.764,0.231-1.358,1.224-1.081c2.713,0.75,4.805,1.466,8.922,1.466
		c4.111-0.056,7.231-1.962,7.231-5.382v-0.706c0-0.216-0.222-0.276-0.34-0.155c-1.682,1.842-4.695,2.873-8.053,2.873
		c-6.089,0-11.526-3.261-11.526-10.708V12.56c0-0.659,0.449-1.095,1.156-1.095h11.531c0.63,0,1.156,0.488,1.156,1.095v16.076
		c0,1.517,0.697,2.814,2.369,2.814c2.561,0,2.847-1.952,2.847-5.482V12.56c0.047-0.659,0.584-1.095,1.216-1.095h11.58
		c0.587,0,1.113,0.488,1.113,1.095v24.759c0,9.556-3.377,18.422-16.692,18.422C76.867,55.741,72.455,55.242,72.057,53.555z"/>
	<path fill="#8ACC19" d="M153.829,28.486c2.512-3.839,7.144-6.786,12.046-8.26c4.825-1.45,10.329-1.549,14.544,0.266
		c4.774,2.026,8.074,6.569,9.598,11.635c1.557,5.184,1.309,10.788-1.556,15.116c-2.514,3.842-7.177,6.735-12.001,8.185
		c-4.904,1.475-10.376,1.628-14.589-0.191c-4.79-2.028-8.077-6.568-9.639-11.752C150.711,38.419,150.948,32.812,153.829,28.486z
		 M172.701,42.925c3.243-0.975,4.986-3.943,3.933-6.776c-0.648-2.825-3.738-4.341-6.982-3.365c-3.303,0.993-5.048,3.962-3.923,6.644
		C166.305,42.404,169.396,43.918,172.701,42.925z"/>
	<path fill="#8ACC19" d="M201.988,14.177c3.98-2.281,9.452-2.797,14.488-1.886c4.963,0.896,9.899,3.295,12.829,6.826
		c3.349,3.978,4.218,9.519,3.276,14.724c-0.964,5.338-3.717,10.218-8.248,12.773c-3.982,2.282-9.431,2.738-14.395,1.842
		c-5.036-0.911-9.996-3.25-12.923-6.781c-3.353-3.979-4.219-9.515-3.255-14.851C194.703,21.616,197.453,16.731,201.988,14.177z
		 M212.26,35.62c3.323,0.601,6.229-1.253,6.582-4.263c0.698-2.805-1.374-5.555-4.699-6.154c-3.396-0.615-6.303,1.235-6.506,4.128
		C206.79,32.251,208.863,35.005,212.26,35.62z"/>
	<path fill="#8ACC19" d="M251.933,10.679l-0.152,17.113c0,0.436,0.493,0.563,0.678,0.196l4.054-6.004
		c0.383-0.547,1.181-0.843,1.797-0.834l12.923,0.099c0.859,0.021,1.284,0.933,0.842,1.489l-9.098,13.837
		c-0.119,0.309-0.125,0.734-0.009,0.98l9.092,17.2c0.351,0.555-0.024,1.527-0.889,1.527l-12.908-0.119
		c-0.62,0-1.493-0.314-1.786-0.935l-4.246-7.908c-0.174-0.378-0.617-0.198-0.617,0.178l-0.056,7.376
		c-0.011,0.684-0.578,1.228-1.252,1.228l-12.312-0.108c-0.615-0.009-1.217-0.565-1.206-1.239l0.374-44.192
		c0-0.684,0.624-1.17,1.242-1.17l12.311,0.111C251.401,9.515,251.933,10.008,251.933,10.679z"/>
	<path fill="#8ACC19" d="M289.365,53.744c-5.225,0-10.529-0.792-13.599-1.536c-0.678-0.129-1.173-0.614-1.289-1.299l-2.031-9.288
		c-0.189-0.803,0.611-1.358,1.413-1.039c5.176,2.08,13.363,2.763,16.438,2.517c1.347-0.12,1.477-1.168,0.5-1.844
		c-1.856-1.358-18.54-0.672-18.54-12.866c-0.119-8,6.34-11.449,17.236-11.449c5.233,0,10.589,0.8,13.604,1.534
		c0.742,0.12,1.237,0.617,1.356,1.289l2.092,9.296c0.129,0.807-0.745,1.292-1.417,1.055c-5.294-2.102-13.427-3.015-16.441-2.716
		c-1.403,0.128-1.464,1.169-0.611,1.851c1.917,1.364,18.599,0.865,18.66,13.048C306.791,50.233,300.384,53.744,289.365,53.744z"/>
	<path fill="#28C6C6" d="M2.596,48.926c0-1.001,0.02-1.712,0.07-2.159l5.61-27.208c0.3-1.589,0.99-2.967,2.091-4.14
		c1.103-1.168,2.475-2.011,4.136-2.502c1.416-0.438,2.813-0.656,4.169-0.656c2.312,0,4.382,0.554,6.195,1.691
		c1.829,1.144,3.036,2.65,3.67,4.533l5.043,14.333l5.079-14.333c0.699-1.903,1.946-3.42,3.755-4.541
		c1.829-1.13,3.886-1.684,6.168-1.684c1.346,0,2.738,0.217,4.184,0.656c1.667,0.492,3.047,1.327,4.114,2.496
		c1.066,1.159,1.777,2.537,2.097,4.147l5.553,27.208c0.093,0.447,0.129,1.158,0.129,2.159c-0.199,1.585-1.029,2.906-2.516,3.956
		c-1.485,1.051-3.212,1.577-5.189,1.577c-0.881,0-1.749-0.11-2.622-0.327c-1.446-0.425-2.638-1.113-3.568-2.051
		c-0.928-0.946-1.483-2.015-1.644-3.213l-2.396-16.444l-6.291,17.227c-0.493,1.398-1.066,2.458-1.756,3.164
		c-0.678,0.712-1.53,1.201-2.557,1.476c-1.099,0.318-2.01,0.476-2.743,0.476c-1.507,0-2.834-0.437-3.965-1.311
		c-1.147-0.861-2.002-2.141-2.58-3.805l-6.376-17.227l-2.344,16.444c-0.163,1.198-0.707,2.267-1.645,3.213
		c-0.935,0.938-2.121,1.625-3.542,2.051c-0.888,0.217-1.762,0.327-2.603,0.327c-1.972,0-3.694-0.525-5.187-1.577
		C3.636,51.833,2.794,50.512,2.596,48.926z"/>
	<path fill="#8ACC19" d="M198.833,13.043c0,0,3.776-3.085,9.354-4.143c0,0-3.05-5.444-8.963-6.9
		C199.225,2,196.935,7.395,198.833,13.043z"/>
	<path fill="#8ACC19" d="M223.624,10.979c0,0,4.458,1.952,7.934,6.442c0,0,3.464-5.185,2.08-11.111
		C233.638,6.311,227.787,6.733,223.624,10.979z"/>
	<path fill="#8ACC19" d="M150.968,26.775c-0.036,0-0.07,0.006-0.105,0.006c-3.776,0-7.105-2.694-7.916-6.414
		c-0.462-2.153-0.016-4.292,1.078-6.022c-4.868-3.285-11.642-4.678-18.256-4.741c-6.029,0-10.705,0.316-16.379,0.741
		c-0.675,0.061-1.285,0.545-1.285,1.23v42.042c0,0.672,0.61,1.228,1.285,1.228h15.645c0.734,0,1.285-0.556,1.285-1.228v-7.756
		c0-0.315,0.132-0.375,0.319-0.375c10.823,0.873,24.494-4.42,24.366-18.219C151.002,27.097,150.973,26.944,150.968,26.775z
		 M127.742,31.521c-0.675,0-1.423-0.309-1.423-1.11v-5.424c0-0.613,0.936-1.168,1.552-1.228c2.822-0.121,5.347,1.05,5.347,3.827
		C133.217,30.043,131.615,31.648,127.742,31.521z"/>
	<g>
		<path fill="#8ACC19" d="M150.893,13.264c2.488,0,4.72,1.735,5.27,4.276c0.62,2.921-1.232,5.792-4.155,6.41
			c-0.383,0.083-0.767,0.123-1.145,0.123c-2.486,0-4.715-1.733-5.269-4.275c-0.628-2.92,1.226-5.779,4.148-6.41
			C150.127,13.305,150.513,13.264,150.893,13.264"/>
	</g>
</g>
</svg>
