<?xml version="1.0" encoding="UTF-8" standalone="no"?>
<!DOCTYPE svg PUBLIC "-//W3C//DTD SVG 1.1//EN"
 "http://www.w3.org/Graphics/SVG/1.1/DTD/svg11.dtd">
<!-- Generated by graphviz version 2.38.0 (20140413.2041)
 -->
<!-- Title: controllers_diagram Pages: 1 -->
<svg width="504pt" height="567pt"
 viewBox="0.00 0.00 504.02 567.00" xmlns="http://www.w3.org/2000/svg" xmlns:xlink="http://www.w3.org/1999/xlink">
<g id="graph0" class="graph" transform="scale(1 1) rotate(0) translate(212.334 339.5)">
<title>controllers_diagram</title>
<polygon fill="none" stroke="none" points="-212.334,227.5 -212.334,-339.5 291.688,-339.5 291.688,227.5 -212.334,227.5"/>
<!-- _diagram_info -->
<g id="node1" class="node"><title>_diagram_info</title>
<text text-anchor="start" x="88.3123" y="-107.1" font-family="Times,serif" font-size="13.00">Controllers diagram</text>
<text text-anchor="start" x="88.3123" y="-94.1" font-family="Times,serif" font-size="13.00">Date: Sep 01 2016 &#45; 11:55</text>
<text text-anchor="start" x="88.3123" y="-81.1" font-family="Times,serif" font-size="13.00">Migration version: 20150723052743</text>
<text text-anchor="start" x="88.3123" y="-68.1" font-family="Times,serif" font-size="13.00">Generated by RailRoady 1.5.1</text>
<text text-anchor="start" x="88.3123" y="-55.1" font-family="Times,serif" font-size="13.00">http://railroady.prestonlee.com</text>
</g>
<!-- ApplicationController -->
<g id="node2" class="node"><title>ApplicationController</title>
<path fill="none" stroke="black" d="M92.0342,79C92.0342,79 265.966,79 265.966,79 271.966,79 277.966,73 277.966,67 277.966,67 277.966,1 277.966,1 277.966,-5 271.966,-11 265.966,-11 265.966,-11 92.0342,-11 92.0342,-11 86.0342,-11 80.0342,-5 80.0342,1 80.0342,1 80.0342,67 80.0342,67 80.0342,73 86.0342,79 92.0342,79"/>
<text text-anchor="middle" x="179" y="4.2" font-family="Times,serif" font-size="14.00">ApplicationController</text>
<polyline fill="none" stroke="black" points="80.0342,11 277.966,11 "/>
<polyline fill="none" stroke="black" points="80.0342,35 277.966,35 "/>
<text text-anchor="start" x="88.0342" y="50.2" font-family="Times,serif" font-size="14.00">configure_permitted_parameters</text>
<polyline fill="none" stroke="black" points="80.0342,57 277.966,57 "/>
<text text-anchor="start" x="88.0342" y="72.2" font-family="Times,serif" font-size="14.00">_layout</text>
</g>
<!-- CommentsController -->
<g id="node3" class="node"><title>CommentsController</title>
<path fill="none" stroke="black" d="M91.8931,223C91.8931,223 202.107,223 202.107,223 208.107,223 214.107,217 214.107,211 214.107,211 214.107,117 214.107,117 214.107,111 208.107,105 202.107,105 202.107,105 91.8931,105 91.8931,105 85.8931,105 79.8931,111 79.8931,117 79.8931,117 79.8931,211 79.8931,211 79.8931,217 85.8931,223 91.8931,223"/>
<text text-anchor="middle" x="147" y="120.2" font-family="Times,serif" font-size="14.00">CommentsController</text>
<polyline fill="none" stroke="black" points="79.8931,127 214.107,127 "/>
<text text-anchor="start" x="87.8931" y="142.2" font-family="Times,serif" font-size="14.00">create</text>
<text text-anchor="start" x="87.8931" y="156.2" font-family="Times,serif" font-size="14.00">destroy</text>
<polyline fill="none" stroke="black" points="79.8931,163 214.107,163 "/>
<polyline fill="none" stroke="black" points="79.8931,187 214.107,187 "/>
<text text-anchor="start" x="87.8931" y="202.2" font-family="Times,serif" font-size="14.00">_layout</text>
<text text-anchor="start" x="87.8931" y="216.2" font-family="Times,serif" font-size="14.00">find_commentable</text>
</g>
<!-- EventsController -->
<g id="node4" class="node"><title>EventsController</title>
<path fill="none" stroke="black" d="M-51.8242,-145C-51.8242,-145 35.8242,-145 35.8242,-145 41.8242,-145 47.8242,-151 47.8242,-157 47.8242,-157 47.8242,-307 47.8242,-307 47.8242,-313 41.8242,-319 35.8242,-319 35.8242,-319 -51.8242,-319 -51.8242,-319 -57.8242,-319 -63.8242,-313 -63.8242,-307 -63.8242,-307 -63.8242,-157 -63.8242,-157 -63.8242,-151 -57.8242,-145 -51.8242,-145"/>
<text text-anchor="middle" x="-8" y="-303.8" font-family="Times,serif" font-size="14.00">EventsController</text>
<polyline fill="none" stroke="black" points="-63.8242,-297 47.8242,-297 "/>
<text text-anchor="start" x="-55.8242" y="-281.8" font-family="Times,serif" font-size="14.00">create</text>
<text text-anchor="start" x="-55.8242" y="-267.8" font-family="Times,serif" font-size="14.00">destroy</text>
<text text-anchor="start" x="-55.8242" y="-253.8" font-family="Times,serif" font-size="14.00">new</text>
<text text-anchor="start" x="-55.8242" y="-239.8" font-family="Times,serif" font-size="14.00">show</text>
<polyline fill="none" stroke="black" points="-63.8242,-233 47.8242,-233 "/>
<polyline fill="none" stroke="black" points="-63.8242,-209 47.8242,-209 "/>
<text text-anchor="start" x="-55.8242" y="-193.8" font-family="Times,serif" font-size="14.00">_layout</text>
<text text-anchor="start" x="-55.8242" y="-179.8" font-family="Times,serif" font-size="14.00">event_params</text>
<text text-anchor="start" x="-55.8242" y="-165.8" font-family="Times,serif" font-size="14.00">set_event</text>
<text text-anchor="start" x="-55.8242" y="-151.8" font-family="Times,serif" font-size="14.00">set_user</text>
</g>
<!-- FollowsController -->
<g id="node5" class="node"><title>FollowsController</title>
<path fill="none" stroke="black" d="M-196.334,-209C-196.334,-209 -101.666,-209 -101.666,-209 -95.6655,-209 -89.6655,-215 -89.6655,-221 -89.6655,-221 -89.6655,-301 -89.6655,-301 -89.6655,-307 -95.6655,-313 -101.666,-313 -101.666,-313 -196.334,-313 -196.334,-313 -202.334,-313 -208.334,-307 -208.334,-301 -208.334,-301 -208.334,-221 -208.334,-221 -208.334,-215 -202.334,-209 -196.334,-209"/>
<text text-anchor="middle" x="-149" y="-297.8" font-family="Times,serif" font-size="14.00">FollowsController</text>
<polyline fill="none" stroke="black" points="-208.334,-291 -89.6655,-291 "/>
<text text-anchor="start" x="-200.334" y="-275.8" font-family="Times,serif" font-size="14.00">create</text>
<text text-anchor="start" x="-200.334" y="-261.8" font-family="Times,serif" font-size="14.00">destroy</text>
<polyline fill="none" stroke="black" points="-208.334,-255 -89.6655,-255 "/>
<polyline fill="none" stroke="black" points="-208.334,-231 -89.6655,-231 "/>
<text text-anchor="start" x="-200.334" y="-215.8" font-family="Times,serif" font-size="14.00">_layout</text>
</g>
<!-- HomeController -->
<g id="node6" class="node"><title>HomeController</title>
<path fill="none" stroke="black" d="M-195.879,-1C-195.879,-1 -112.121,-1 -112.121,-1 -106.121,-1 -100.121,-7 -100.121,-13 -100.121,-13 -100.121,-121 -100.121,-121 -100.121,-127 -106.121,-133 -112.121,-133 -112.121,-133 -195.879,-133 -195.879,-133 -201.879,-133 -207.879,-127 -207.879,-121 -207.879,-121 -207.879,-13 -207.879,-13 -207.879,-7 -201.879,-1 -195.879,-1"/>
<text text-anchor="middle" x="-154" y="-117.8" font-family="Times,serif" font-size="14.00">HomeController</text>
<polyline fill="none" stroke="black" points="-207.879,-111 -100.121,-111 "/>
<text text-anchor="start" x="-199.879" y="-95.8" font-family="Times,serif" font-size="14.00">find_friends</text>
<text text-anchor="start" x="-199.879" y="-81.8" font-family="Times,serif" font-size="14.00">front</text>
<text text-anchor="start" x="-199.879" y="-67.8" font-family="Times,serif" font-size="14.00">index</text>
<polyline fill="none" stroke="black" points="-207.879,-61 -100.121,-61 "/>
<polyline fill="none" stroke="black" points="-207.879,-37 -100.121,-37 "/>
<text text-anchor="start" x="-199.879" y="-21.8" font-family="Times,serif" font-size="14.00">_layout</text>
<text text-anchor="start" x="-199.879" y="-7.8" font-family="Times,serif" font-size="14.00">set_user</text>
</g>
<!-- LikesController -->
<g id="node7" class="node"><title>LikesController</title>
<path fill="none" stroke="black" d="M-196.324,143C-196.324,143 -115.676,143 -115.676,143 -109.676,143 -103.676,137 -103.676,131 -103.676,131 -103.676,37 -103.676,37 -103.676,31 -109.676,25 -115.676,25 -115.676,25 -196.324,25 -196.324,25 -202.324,25 -208.324,31 -208.324,37 -208.324,37 -208.324,131 -208.324,131 -208.324,137 -202.324,143 -196.324,143"/>
<text text-anchor="middle" x="-156" y="40.2" font-family="Times,serif" font-size="14.00">LikesController</text>
<polyline fill="none" stroke="black" points="-208.324,47 -103.676,47 "/>
<text text-anchor="start" x="-200.324" y="62.2" font-family="Times,serif" font-size="14.00">create</text>
<text text-anchor="start" x="-200.324" y="76.2" font-family="Times,serif" font-size="14.00">destroy</text>
<polyline fill="none" stroke="black" points="-208.324,83 -103.676,83 "/>
<polyline fill="none" stroke="black" points="-208.324,107 -103.676,107 "/>
<text text-anchor="start" x="-200.324" y="122.2" font-family="Times,serif" font-size="14.00">_layout</text>
<text text-anchor="start" x="-200.324" y="136.2" font-family="Times,serif" font-size="14.00">find_likeable</text>
</g>
<!-- PostsController -->
<g id="node8" class="node"><title>PostsController</title>
<path fill="none" stroke="black" d="M172.441,-161C172.441,-161 251.559,-161 251.559,-161 257.559,-161 263.559,-167 263.559,-173 263.559,-173 263.559,-323 263.559,-323 263.559,-329 257.559,-335 251.559,-335 251.559,-335 172.441,-335 172.441,-335 166.441,-335 160.441,-329 160.441,-323 160.441,-323 160.441,-173 160.441,-173 160.441,-167 166.441,-161 172.441,-161"/>
<text text-anchor="middle" x="212" y="-319.8" font-family="Times,serif" font-size="14.00">PostsController</text>
<polyline fill="none" stroke="black" points="160.441,-313 263.559,-313 "/>
<text text-anchor="start" x="168.441" y="-297.8" font-family="Times,serif" font-size="14.00">create</text>
<text text-anchor="start" x="168.441" y="-283.8" font-family="Times,serif" font-size="14.00">destroy</text>
<text text-anchor="start" x="168.441" y="-269.8" font-family="Times,serif" font-size="14.00">edit</text>
<text text-anchor="start" x="168.441" y="-255.8" font-family="Times,serif" font-size="14.00">show</text>
<text text-anchor="start" x="168.441" y="-241.8" font-family="Times,serif" font-size="14.00">update</text>
<polyline fill="none" stroke="black" points="160.441,-235 263.559,-235 "/>
<polyline fill="none" stroke="black" points="160.441,-211 263.559,-211 "/>
<text text-anchor="start" x="168.441" y="-195.8" font-family="Times,serif" font-size="14.00">_layout</text>
<text text-anchor="start" x="168.441" y="-181.8" font-family="Times,serif" font-size="14.00">post_params</text>
<text text-anchor="start" x="168.441" y="-167.8" font-family="Times,serif" font-size="14.00">set_post</text>
</g>
<!-- UsersController -->
<g id="node9" class="node"><title>UsersController</title>
<path fill="none" stroke="black" d="M-51.9829,111C-51.9829,111 37.9829,111 37.9829,111 43.9829,111 49.9829,105 49.9829,99 49.9829,99 49.9829,-93 49.9829,-93 49.9829,-99 43.9829,-105 37.9829,-105 37.9829,-105 -51.9829,-105 -51.9829,-105 -57.9829,-105 -63.9829,-99 -63.9829,-93 -63.9829,-93 -63.9829,99 -63.9829,99 -63.9829,105 -57.9829,111 -51.9829,111"/>
<text text-anchor="middle" x="-7" y="-89.8" font-family="Times,serif" font-size="14.00">UsersController</text>
<polyline fill="none" stroke="black" points="-63.9829,-83 49.9829,-83 "/>
<text text-anchor="start" x="-55.9829" y="-67.8" font-family="Times,serif" font-size="14.00">friends</text>
<text text-anchor="start" x="-55.9829" y="-53.8" font-family="Times,serif" font-size="14.00">edit</text>
<text text-anchor="start" x="-55.9829" y="-39.8" font-family="Times,serif" font-size="14.00">followers</text>
<text text-anchor="start" x="-55.9829" y="-25.8" font-family="Times,serif" font-size="14.00">deactivate</text>
<text text-anchor="start" x="-55.9829" y="-11.8" font-family="Times,serif" font-size="14.00">mentionable</text>
<text text-anchor="start" x="-55.9829" y="2.2" font-family="Times,serif" font-size="14.00">show</text>
<text text-anchor="start" x="-55.9829" y="16.2" font-family="Times,serif" font-size="14.00">update</text>
<polyline fill="none" stroke="black" points="-63.9829,23 49.9829,23 "/>
<polyline fill="none" stroke="black" points="-63.9829,47 49.9829,47 "/>
<text text-anchor="start" x="-55.9829" y="62.2" font-family="Times,serif" font-size="14.00">_layout</text>
<text text-anchor="start" x="-55.9829" y="76.2" font-family="Times,serif" font-size="14.00">check_ownership</text>
<text text-anchor="start" x="-55.9829" y="90.2" font-family="Times,serif" font-size="14.00">set_user</text>
<text text-anchor="start" x="-55.9829" y="104.2" font-family="Times,serif" font-size="14.00">user_params</text>
</g>
</g>
</svg>
