<?xml version="1.0" encoding="UTF-8" standalone="no"?>
<!DOCTYPE svg PUBLIC "-//W3C//DTD SVG 1.1//EN"
 "http://www.w3.org/Graphics/SVG/1.1/DTD/svg11.dtd">
<!-- Generated by graphviz version 2.38.0 (20140413.2041)
 -->
<!-- Title: models_diagram Pages: 1 -->
<svg width="685pt" height="917pt"
 viewBox="0.00 0.00 684.87 917.00" xmlns="http://www.w3.org/2000/svg" xmlns:xlink="http://www.w3.org/1999/xlink">
<g id="graph0" class="graph" transform="scale(1 1) rotate(0) translate(4 913)">
<title>models_diagram</title>
<polygon fill="none" stroke="none" points="-4,4 -4,-913 680.871,-913 680.871,4 -4,4"/>
<!-- _diagram_info -->
<g id="node1" class="node"><title>_diagram_info</title>
<text text-anchor="start" x="47.6453" y="-733.6" font-family="Times,serif" font-size="13.00">Models diagram</text>
<text text-anchor="start" x="47.6453" y="-720.6" font-family="Times,serif" font-size="13.00">Date: Sep 01 2016 &#45; 11:55</text>
<text text-anchor="start" x="47.6453" y="-707.6" font-family="Times,serif" font-size="13.00">Migration version: 20150723052743</text>
<text text-anchor="start" x="47.6453" y="-694.6" font-family="Times,serif" font-size="13.00">Generated by RailRoady 1.5.1</text>
<text text-anchor="start" x="47.6453" y="-681.6" font-family="Times,serif" font-size="13.00">http://railroady.prestonlee.com</text>
</g>
<!-- Comment -->
<g id="node2" class="node"><title>Comment</title>
<path fill="none" stroke="black" d="M401.234,-86.5C401.234,-86.5 579.432,-86.5 579.432,-86.5 585.432,-86.5 591.432,-92.5 591.432,-98.5 591.432,-98.5 591.432,-244.5 591.432,-244.5 591.432,-250.5 585.432,-256.5 579.432,-256.5 579.432,-256.5 401.234,-256.5 401.234,-256.5 395.234,-256.5 389.234,-250.5 389.234,-244.5 389.234,-244.5 389.234,-98.5 389.234,-98.5 389.234,-92.5 395.234,-86.5 401.234,-86.5"/>
<text text-anchor="middle" x="490.333" y="-241.3" font-family="Times,serif" font-size="14.00">Comment</text>
<polyline fill="none" stroke="black" points="389.234,-234.5 591.432,-234.5 "/>
<text text-anchor="start" x="397.234" y="-219.3" font-family="Times,serif" font-size="14.00">comment_html :text</text>
<text text-anchor="start" x="397.234" y="-205.3" font-family="Times,serif" font-size="14.00">title :varchar(50)</text>
<text text-anchor="start" x="397.234" y="-191.3" font-family="Times,serif" font-size="14.00">comment :text</text>
<text text-anchor="start" x="397.234" y="-177.3" font-family="Times,serif" font-size="14.00">commentable_id :integer</text>
<text text-anchor="start" x="397.234" y="-163.3" font-family="Times,serif" font-size="14.00">commentable_type :varchar(255)</text>
<text text-anchor="start" x="397.234" y="-149.3" font-family="Times,serif" font-size="14.00">user_id :integer</text>
<text text-anchor="start" x="397.234" y="-135.3" font-family="Times,serif" font-size="14.00">role :varchar(255)</text>
<text text-anchor="start" x="397.234" y="-121.3" font-family="Times,serif" font-size="14.00">created_at :datetime</text>
<text text-anchor="start" x="397.234" y="-107.3" font-family="Times,serif" font-size="14.00">updated_at :datetime</text>
<text text-anchor="start" x="397.234" y="-93.3" font-family="Times,serif" font-size="14.00">id :INTEGER</text>
</g>
<!-- PublicActivity::Activity -->
<g id="node8" class="node"><title>PublicActivity::Activity</title>
<ellipse fill="none" stroke="black" cx="371.333" cy="-18" rx="95.6759" ry="18"/>
<text text-anchor="middle" x="371.333" y="-13.8" font-family="Times,serif" font-size="14.00">PublicActivity::Activity</text>
</g>
<!-- Comment&#45;&gt;PublicActivity::Activity -->
<g id="edge1" class="edge"><title>Comment&#45;&gt;PublicActivity::Activity</title>
<path fill="none" stroke="#3eb643" d="M418.947,-79.6184C408.673,-66.5376 398.891,-54.0845 390.896,-43.9062"/>
<ellipse fill="none" stroke="#3eb643" cx="421.75" cy="-83.1867" rx="4.00002" ry="4.00002"/>
<polygon fill="#3eb643" stroke="#3eb643" points="390.806,-43.7918 388.168,-33.148 387.718,-39.8598 384.629,-35.9277 384.629,-35.9277 384.629,-35.9277 387.718,-39.8598 381.091,-38.7074 390.806,-43.7918 390.806,-43.7918"/>
<text text-anchor="middle" x="431.602" y="-56.8" font-family="Times,serif" font-size="14.00">activities</text>
</g>
<!-- Event -->
<g id="node3" class="node"><title>Event</title>
<path fill="none" stroke="black" d="M254,-314.5C254,-314.5 388.666,-314.5 388.666,-314.5 394.666,-314.5 400.666,-320.5 400.666,-326.5 400.666,-326.5 400.666,-444.5 400.666,-444.5 400.666,-450.5 394.666,-456.5 388.666,-456.5 388.666,-456.5 254,-456.5 254,-456.5 248,-456.5 242,-450.5 242,-444.5 242,-444.5 242,-326.5 242,-326.5 242,-320.5 248,-314.5 254,-314.5"/>
<text text-anchor="middle" x="321.333" y="-441.3" font-family="Times,serif" font-size="14.00">Event</text>
<polyline fill="none" stroke="black" points="242,-434.5 400.666,-434.5 "/>
<text text-anchor="start" x="250" y="-419.3" font-family="Times,serif" font-size="14.00">comments_count :integer</text>
<text text-anchor="start" x="250" y="-405.3" font-family="Times,serif" font-size="14.00">name :varchar(255)</text>
<text text-anchor="start" x="250" y="-391.3" font-family="Times,serif" font-size="14.00">when :datetime</text>
<text text-anchor="start" x="250" y="-377.3" font-family="Times,serif" font-size="14.00">user_id :integer</text>
<text text-anchor="start" x="250" y="-363.3" font-family="Times,serif" font-size="14.00">created_at :datetime</text>
<text text-anchor="start" x="250" y="-349.3" font-family="Times,serif" font-size="14.00">updated_at :datetime</text>
<text text-anchor="start" x="250" y="-335.3" font-family="Times,serif" font-size="14.00">cached_votes_up :integer</text>
<text text-anchor="start" x="250" y="-321.3" font-family="Times,serif" font-size="14.00">id :INTEGER</text>
</g>
<!-- Event&#45;&gt;Comment -->
<g id="edge3" class="edge"><title>Event&#45;&gt;Comment</title>
<path fill="none" stroke="#0e069f" d="M382.361,-307.945C393.526,-293.938 405.286,-279.187 416.771,-264.779"/>
<ellipse fill="none" stroke="#0e069f" cx="379.632" cy="-311.368" rx="4.00002" ry="4.00002"/>
<polygon fill="#0e069f" stroke="#0e069f" points="416.884,-264.637 426.636,-259.622 420.001,-260.727 423.118,-256.817 423.118,-256.817 423.118,-256.817 420.001,-260.727 419.599,-254.012 416.884,-264.637 416.884,-264.637"/>
</g>
<!-- Event&#45;&gt;PublicActivity::Activity -->
<g id="edge4" class="edge"><title>Event&#45;&gt;PublicActivity::Activity</title>
<path fill="none" stroke="#11ac8c" d="M312.597,-306.312C308.338,-245.042 308.074,-158.35 329.795,-86 334.292,-71.022 343.05,-56.0666 351.369,-44.0976"/>
<ellipse fill="none" stroke="#11ac8c" cx="312.899" cy="-310.418" rx="4" ry="4"/>
<polygon fill="#11ac8c" stroke="#11ac8c" points="351.407,-44.0449 360.924,-38.5962 354.345,-39.9987 357.282,-35.9525 357.282,-35.9525 357.282,-35.9525 354.345,-39.9987 353.641,-33.3088 351.407,-44.0449 351.407,-44.0449"/>
<text text-anchor="middle" x="354.602" y="-167.3" font-family="Times,serif" font-size="14.00">activities</text>
</g>
<!-- ActsAsVotable::Vote -->
<g id="node9" class="node"><title>ActsAsVotable::Vote</title>
<ellipse fill="none" stroke="black" cx="200.333" cy="-171.5" rx="83.9272" ry="18"/>
<text text-anchor="middle" x="200.333" y="-167.3" font-family="Times,serif" font-size="14.00">ActsAsVotable::Vote</text>
</g>
<!-- Event&#45;&gt;ActsAsVotable::Vote -->
<g id="edge2" class="edge"><title>Event&#45;&gt;ActsAsVotable::Vote</title>
<path fill="none" stroke="#a2747d" d="M264.825,-307.595C260.838,-301.393 257,-295.147 253.457,-289 236.362,-259.341 220.61,-223.207 210.772,-199.121"/>
<ellipse fill="none" stroke="#a2747d" cx="267.016" cy="-310.952" rx="4.00002" ry="4.00002"/>
<polygon fill="#a2747d" stroke="#a2747d" points="210.669,-198.865 211.104,-187.908 208.8,-194.227 206.931,-189.59 206.931,-189.59 206.931,-189.59 208.8,-194.227 202.757,-191.272 210.669,-198.865 210.669,-198.865"/>
<text text-anchor="middle" x="279.771" y="-277.8" font-family="Times,serif" font-size="14.00">votes_for</text>
</g>
<!-- Follow -->
<g id="node4" class="node"><title>Follow</title>
<path fill="none" stroke="black" d="M468.007,-314.5C468.007,-314.5 630.659,-314.5 630.659,-314.5 636.659,-314.5 642.659,-320.5 642.659,-326.5 642.659,-326.5 642.659,-444.5 642.659,-444.5 642.659,-450.5 636.659,-456.5 630.659,-456.5 630.659,-456.5 468.007,-456.5 468.007,-456.5 462.007,-456.5 456.007,-450.5 456.007,-444.5 456.007,-444.5 456.007,-326.5 456.007,-326.5 456.007,-320.5 462.007,-314.5 468.007,-314.5"/>
<text text-anchor="middle" x="549.333" y="-441.3" font-family="Times,serif" font-size="14.00">Follow</text>
<polyline fill="none" stroke="black" points="456.007,-434.5 642.659,-434.5 "/>
<text text-anchor="start" x="464.007" y="-419.3" font-family="Times,serif" font-size="14.00">updated_at :datetime</text>
<text text-anchor="start" x="464.007" y="-405.3" font-family="Times,serif" font-size="14.00">followable_id :integer</text>
<text text-anchor="start" x="464.007" y="-391.3" font-family="Times,serif" font-size="14.00">followable_type :varchar(255)</text>
<text text-anchor="start" x="464.007" y="-377.3" font-family="Times,serif" font-size="14.00">follower_id :integer</text>
<text text-anchor="start" x="464.007" y="-363.3" font-family="Times,serif" font-size="14.00">follower_type :varchar(255)</text>
<text text-anchor="start" x="464.007" y="-349.3" font-family="Times,serif" font-size="14.00">blocked :boolean</text>
<text text-anchor="start" x="464.007" y="-335.3" font-family="Times,serif" font-size="14.00">created_at :datetime</text>
<text text-anchor="start" x="464.007" y="-321.3" font-family="Times,serif" font-size="14.00">id :INTEGER</text>
</g>
<!-- Follow&#45;&gt;PublicActivity::Activity -->
<g id="edge5" class="edge"><title>Follow&#45;&gt;PublicActivity::Activity</title>
<path fill="none" stroke="#c7c59f" d="M592.099,-307.02C621.664,-241.885 647.917,-149.501 600.333,-86 582.223,-61.8318 510.449,-43.4586 452.019,-32.1197"/>
<ellipse fill="none" stroke="#c7c59f" cx="590.351" cy="-310.797" rx="4.00002" ry="4.00002"/>
<polygon fill="#c7c59f" stroke="#c7c59f" points="451.85,-32.0877 442.864,-25.8017 446.937,-31.1552 442.025,-30.2227 442.025,-30.2227 442.025,-30.2227 446.937,-31.1552 441.186,-34.6438 451.85,-32.0877 451.85,-32.0877"/>
<text text-anchor="middle" x="651.602" y="-167.3" font-family="Times,serif" font-size="14.00">activities</text>
</g>
<!-- Mention -->
<g id="node5" class="node"><title>Mention</title>
<polygon fill="none" stroke="black" stroke-dasharray="1,5" points="567.276,-729.5 503.39,-729.5 503.39,-693.5 567.276,-693.5 567.276,-729.5"/>
<text text-anchor="middle" x="535.333" y="-707.3" font-family="Times,serif" font-size="14.00">Mention</text>
</g>
<!-- Post -->
<g id="node6" class="node"><title>Post</title>
<path fill="none" stroke="black" d="M12,-307.5C12,-307.5 146.666,-307.5 146.666,-307.5 152.666,-307.5 158.666,-313.5 158.666,-319.5 158.666,-319.5 158.666,-451.5 158.666,-451.5 158.666,-457.5 152.666,-463.5 146.666,-463.5 146.666,-463.5 12,-463.5 12,-463.5 6,-463.5 0,-457.5 0,-451.5 0,-451.5 0,-319.5 0,-319.5 0,-313.5 6,-307.5 12,-307.5"/>
<text text-anchor="middle" x="79.333" y="-448.3" font-family="Times,serif" font-size="14.00">Post</text>
<polyline fill="none" stroke="black" points="0,-441.5 158.666,-441.5 "/>
<text text-anchor="start" x="8" y="-426.3" font-family="Times,serif" font-size="14.00">content_html :text</text>
<text text-anchor="start" x="8" y="-412.3" font-family="Times,serif" font-size="14.00">content :text</text>
<text text-anchor="start" x="8" y="-398.3" font-family="Times,serif" font-size="14.00">user_id :integer</text>
<text text-anchor="start" x="8" y="-384.3" font-family="Times,serif" font-size="14.00">attachment :varchar(255)</text>
<text text-anchor="start" x="8" y="-370.3" font-family="Times,serif" font-size="14.00">created_at :datetime</text>
<text text-anchor="start" x="8" y="-356.3" font-family="Times,serif" font-size="14.00">updated_at :datetime</text>
<text text-anchor="start" x="8" y="-342.3" font-family="Times,serif" font-size="14.00">cached_votes_up :integer</text>
<text text-anchor="start" x="8" y="-328.3" font-family="Times,serif" font-size="14.00">comments_count :integer</text>
<text text-anchor="start" x="8" y="-314.3" font-family="Times,serif" font-size="14.00">id :INTEGER</text>
</g>
<!-- Post&#45;&gt;Comment -->
<g id="edge7" class="edge"><title>Post&#45;&gt;Comment</title>
<path fill="none" stroke="#f1a5d7" d="M165.914,-310.134C168.042,-309.031 170.183,-307.984 172.333,-307 216.98,-286.567 233.709,-300.952 281.333,-289 324.138,-278.257 336.206,-277.415 375.333,-257 376.919,-256.173 378.506,-255.325 380.095,-254.458"/>
<ellipse fill="none" stroke="#f1a5d7" cx="162.237" cy="-312.158" rx="4.00002" ry="4.00002"/>
<polygon fill="#f1a5d7" stroke="#f1a5d7" points="380.489,-254.235 391.408,-253.218 384.839,-251.769 389.189,-249.303 389.189,-249.303 389.189,-249.303 384.839,-251.769 386.969,-245.388 380.489,-254.235 380.489,-254.235"/>
</g>
<!-- Post&#45;&gt;PublicActivity::Activity -->
<g id="edge8" class="edge"><title>Post&#45;&gt;PublicActivity::Activity</title>
<path fill="none" stroke="#92ebf4" d="M44.1135,-299.599C23.1592,-234.141 8.95792,-145.1 56.7949,-86 83.8136,-52.6199 191.939,-35.1634 273.939,-26.5466"/>
<ellipse fill="none" stroke="#92ebf4" cx="45.4492" cy="-303.661" rx="4.00001" ry="4.00001"/>
<polygon fill="#92ebf4" stroke="#92ebf4" points="274.107,-26.5295 284.512,-29.9907 279.081,-26.0218 284.055,-25.514 284.055,-25.514 284.055,-25.514 279.081,-26.0218 283.598,-21.0373 274.107,-26.5295 274.107,-26.5295"/>
<text text-anchor="middle" x="81.6021" y="-167.3" font-family="Times,serif" font-size="14.00">activities</text>
</g>
<!-- Post&#45;&gt;ActsAsVotable::Vote -->
<g id="edge6" class="edge"><title>Post&#45;&gt;ActsAsVotable::Vote</title>
<path fill="none" stroke="#50a62d" d="M114.49,-299.767C118.628,-291.281 122.979,-282.893 127.457,-275 143.201,-247.25 164.716,-217.783 180.284,-197.601"/>
<ellipse fill="none" stroke="#50a62d" cx="112.639" cy="-303.631" rx="4.00002" ry="4.00002"/>
<polygon fill="#50a62d" stroke="#50a62d" points="180.41,-197.44 190.107,-192.319 183.484,-193.496 186.557,-189.552 186.557,-189.552 186.557,-189.552 183.484,-193.496 183.008,-186.786 180.41,-197.44 180.41,-197.44"/>
<text text-anchor="middle" x="153.771" y="-277.8" font-family="Times,serif" font-size="14.00">votes_for</text>
</g>
<!-- User -->
<g id="node7" class="node"><title>User</title>
<path fill="none" stroke="black" d="M277.286,-514.5C277.286,-514.5 473.38,-514.5 473.38,-514.5 479.38,-514.5 485.38,-520.5 485.38,-526.5 485.38,-526.5 485.38,-896.5 485.38,-896.5 485.38,-902.5 479.38,-908.5 473.38,-908.5 473.38,-908.5 277.286,-908.5 277.286,-908.5 271.286,-908.5 265.286,-902.5 265.286,-896.5 265.286,-896.5 265.286,-526.5 265.286,-526.5 265.286,-520.5 271.286,-514.5 277.286,-514.5"/>
<text text-anchor="middle" x="375.333" y="-893.3" font-family="Times,serif" font-size="14.00">User</text>
<polyline fill="none" stroke="black" points="265.286,-886.5 485.38,-886.5 "/>
<text text-anchor="start" x="273.286" y="-871.3" font-family="Times,serif" font-size="14.00">slug :varchar(255)</text>
<text text-anchor="start" x="273.286" y="-857.3" font-family="Times,serif" font-size="14.00">name :varchar(255)</text>
<text text-anchor="start" x="273.286" y="-843.3" font-family="Times,serif" font-size="14.00">email :varchar(255)</text>
<text text-anchor="start" x="273.286" y="-829.3" font-family="Times,serif" font-size="14.00">encrypted_password :varchar(255)</text>
<text text-anchor="start" x="273.286" y="-815.3" font-family="Times,serif" font-size="14.00">about :varchar(255)</text>
<text text-anchor="start" x="273.286" y="-801.3" font-family="Times,serif" font-size="14.00">avatar :varchar(255)</text>
<text text-anchor="start" x="273.286" y="-787.3" font-family="Times,serif" font-size="14.00">cover :varchar(255)</text>
<text text-anchor="start" x="273.286" y="-773.3" font-family="Times,serif" font-size="14.00">reset_password_token :varchar(255)</text>
<text text-anchor="start" x="273.286" y="-759.3" font-family="Times,serif" font-size="14.00">reset_password_sent_at :datetime</text>
<text text-anchor="start" x="273.286" y="-745.3" font-family="Times,serif" font-size="14.00">remember_created_at :datetime</text>
<text text-anchor="start" x="273.286" y="-731.3" font-family="Times,serif" font-size="14.00">sign_in_count :integer</text>
<text text-anchor="start" x="273.286" y="-717.3" font-family="Times,serif" font-size="14.00">current_sign_in_at :datetime</text>
<text text-anchor="start" x="273.286" y="-703.3" font-family="Times,serif" font-size="14.00">last_sign_in_at :datetime</text>
<text text-anchor="start" x="273.286" y="-689.3" font-family="Times,serif" font-size="14.00">current_sign_in_ip :varchar(255)</text>
<text text-anchor="start" x="273.286" y="-675.3" font-family="Times,serif" font-size="14.00">last_sign_in_ip :varchar(255)</text>
<text text-anchor="start" x="273.286" y="-661.3" font-family="Times,serif" font-size="14.00">confirmation_token :varchar(255)</text>
<text text-anchor="start" x="273.286" y="-647.3" font-family="Times,serif" font-size="14.00">confirmed_at :datetime</text>
<text text-anchor="start" x="273.286" y="-633.3" font-family="Times,serif" font-size="14.00">confirmation_sent_at :datetime</text>
<text text-anchor="start" x="273.286" y="-619.3" font-family="Times,serif" font-size="14.00">created_at :datetime</text>
<text text-anchor="start" x="273.286" y="-605.3" font-family="Times,serif" font-size="14.00">updated_at :datetime</text>
<text text-anchor="start" x="273.286" y="-591.3" font-family="Times,serif" font-size="14.00">sex :varchar(255)</text>
<text text-anchor="start" x="273.286" y="-577.3" font-family="Times,serif" font-size="14.00">location :varchar(255)</text>
<text text-anchor="start" x="273.286" y="-563.3" font-family="Times,serif" font-size="14.00">dob :date</text>
<text text-anchor="start" x="273.286" y="-549.3" font-family="Times,serif" font-size="14.00">phone_number :varchar(255)</text>
<text text-anchor="start" x="273.286" y="-535.3" font-family="Times,serif" font-size="14.00">posts_count :integer</text>
<text text-anchor="start" x="273.286" y="-521.3" font-family="Times,serif" font-size="14.00">id :INTEGER</text>
</g>
<!-- User&#45;&gt;Comment -->
<g id="edge13" class="edge"><title>User&#45;&gt;Comment</title>
<path fill="none" stroke="#dcd65e" d="M406.356,-506.23C417.547,-442.081 431.406,-371.248 447.333,-307 450.608,-293.788 454.486,-279.981 458.55,-266.457"/>
<ellipse fill="none" stroke="#dcd65e" cx="405.618" cy="-510.482" rx="4.00001" ry="4.00001"/>
<polygon fill="#dcd65e" stroke="#dcd65e" points="458.617,-266.237 465.84,-257.986 460.076,-261.455 461.536,-256.672 461.536,-256.672 461.536,-256.672 460.076,-261.455 457.232,-255.359 458.617,-266.237 458.617,-266.237"/>
</g>
<!-- User&#45;&gt;Event -->
<g id="edge14" class="edge"><title>User&#45;&gt;Event</title>
<path fill="none" stroke="#14784c" d="M341.255,-506.031C338.984,-492.408 336.786,-479.217 334.73,-466.881"/>
<ellipse fill="none" stroke="#14784c" cx="341.94" cy="-510.143" rx="4.00001" ry="4.00001"/>
<polygon fill="#14784c" stroke="#14784c" points="334.682,-466.593 337.477,-455.989 333.86,-461.661 333.038,-456.729 333.038,-456.729 333.038,-456.729 333.86,-461.661 328.599,-457.469 334.682,-466.593 334.682,-466.593"/>
</g>
<!-- User&#45;&gt;Follow -->
<g id="edge10" class="edge"><title>User&#45;&gt;Follow</title>
<path fill="none" stroke="#088013" d="M484.634,-506.974C492.391,-492.531 499.893,-478.56 506.873,-465.564"/>
<ellipse fill="none" stroke="#088013" cx="482.706" cy="-510.564" rx="4.00002" ry="4.00002"/>
<polygon fill="#088013" stroke="#088013" points="506.886,-465.539 515.582,-458.858 509.252,-461.134 511.617,-456.729 511.617,-456.729 511.617,-456.729 509.252,-461.134 507.653,-454.6 506.886,-465.539 506.886,-465.539"/>
</g>
<!-- User&#45;&gt;Follow -->
<g id="edge11" class="edge"><title>User&#45;&gt;Follow</title>
<path fill="none" stroke="#af0e10" d="M490.18,-519.869C491.564,-517.897 492.949,-515.94 494.333,-514 500.381,-505.522 504.136,-505.024 509.333,-496 514.707,-486.667 519.576,-476.484 523.916,-466.206"/>
<ellipse fill="none" stroke="#af0e10" cx="487.763" cy="-523.343" rx="4.00002" ry="4.00002"/>
<polygon fill="#af0e10" stroke="#af0e10" points="523.989,-466.027 531.922,-458.456 525.871,-461.394 527.753,-456.762 527.753,-456.762 527.753,-456.762 525.871,-461.394 523.584,-455.068 523.989,-466.027 523.989,-466.027"/>
<text text-anchor="middle" x="546.278" y="-484.8" font-family="Times,serif" font-size="14.00">followings</text>
</g>
<!-- User&#45;&gt;Post -->
<g id="edge12" class="edge"><title>User&#45;&gt;Post</title>
<path fill="none" stroke="#c8c714" d="M258.499,-515.602C257.78,-515.062 257.058,-514.528 256.333,-514 228.273,-493.566 210.298,-513.523 180.333,-496 168.476,-489.066 157.192,-480.297 146.753,-470.752"/>
<ellipse fill="none" stroke="#c8c714" cx="261.724" cy="-518.139" rx="4.00002" ry="4.00002"/>
<polygon fill="#c8c714" stroke="#c8c714" points="146.557,-470.565 142.404,-460.416 142.931,-467.122 139.305,-463.679 139.305,-463.679 139.305,-463.679 142.931,-467.122 136.207,-466.942 146.557,-470.565 146.557,-470.565"/>
</g>
<!-- User&#45;&gt;ActsAsVotable::Vote -->
<g id="edge9" class="edge"><title>User&#45;&gt;ActsAsVotable::Vote</title>
<path fill="none" stroke="#2793ef" d="M260.258,-518.94C258.954,-517.279 257.645,-515.632 256.333,-514 236.127,-488.879 216.663,-493.553 203.781,-464 164.523,-373.935 182.821,-252.843 193.96,-199.57"/>
<ellipse fill="none" stroke="#2793ef" cx="262.821" cy="-522.254" rx="4.00002" ry="4.00002"/>
<polygon fill="#2793ef" stroke="#2793ef" points="194.012,-199.329 200.536,-190.514 195.076,-194.443 196.139,-189.557 196.139,-189.557 196.139,-189.557 195.076,-194.443 191.742,-188.601 194.012,-199.329 194.012,-199.329"/>
<text text-anchor="middle" x="218.109" y="-381.3" font-family="Times,serif" font-size="14.00">votes</text>
</g>
</g>
</svg>
