<?xml version="1.0" encoding="UTF-8" standalone="no"?>
<!DOCTYPE svg PUBLIC "-//W3C//DTD SVG 1.1//EN"
 "http://www.w3.org/Graphics/SVG/1.1/DTD/svg11.dtd">
<!-- Generated by graphviz version 2.38.0 (20140413.2041)
 -->
<!-- Title: models_diagram Pages: 1 -->
<svg width="500pt" height="339pt"
 viewBox="0.00 0.00 500.33 339.00" xmlns="http://www.w3.org/2000/svg" xmlns:xlink="http://www.w3.org/1999/xlink">
<g id="graph0" class="graph" transform="scale(1 1) rotate(0) translate(4 335)">
<title>models_diagram</title>
<polygon fill="none" stroke="none" points="-4,4 -4,-335 496.328,-335 496.328,4 -4,4"/>
<!-- _diagram_info -->
<g id="node1" class="node"><title>_diagram_info</title>
<text text-anchor="start" x="59.1019" y="-316.6" font-family="Times,serif" font-size="13.00">Models diagram</text>
<text text-anchor="start" x="59.1019" y="-303.6" font-family="Times,serif" font-size="13.00">Date: Sep 01 2016 &#45; 11:55</text>
<text text-anchor="start" x="59.1019" y="-290.6" font-family="Times,serif" font-size="13.00">Migration version: 20150723052743</text>
<text text-anchor="start" x="59.1019" y="-277.6" font-family="Times,serif" font-size="13.00">Generated by RailRoady 1.5.1</text>
<text text-anchor="start" x="59.1019" y="-264.6" font-family="Times,serif" font-size="13.00">http://railroady.prestonlee.com</text>
</g>
<!-- Comment -->
<g id="node2" class="node"><title>Comment</title>
<ellipse fill="none" stroke="black" cx="384.79" cy="-104" rx="44.9768" ry="18"/>
<text text-anchor="middle" x="384.79" y="-99.8" font-family="Times,serif" font-size="14.00">Comment</text>
</g>
<!-- PublicActivity::Activity -->
<g id="node8" class="node"><title>PublicActivity::Activity</title>
<ellipse fill="none" stroke="black" cx="307.79" cy="-18" rx="95.6759" ry="18"/>
<text text-anchor="middle" x="307.79" y="-13.8" font-family="Times,serif" font-size="14.00">PublicActivity::Activity</text>
</g>
<!-- Comment&#45;&gt;PublicActivity::Activity -->
<g id="edge1" class="edge"><title>Comment&#45;&gt;PublicActivity::Activity</title>
<path fill="none" stroke="#f38bfe" d="M364.315,-80.6637C353.881,-69.2812 341.166,-55.4101 330.439,-43.7085"/>
<ellipse fill="none" stroke="#f38bfe" cx="367.24" cy="-83.8553" rx="4.00002" ry="4.00002"/>
<polygon fill="#f38bfe" stroke="#f38bfe" points="330.141,-43.3829 326.701,-32.9705 326.762,-39.6971 323.383,-36.0113 323.383,-36.0113 323.383,-36.0113 326.762,-39.6971 320.066,-39.0521 330.141,-43.3829 330.141,-43.3829"/>
<text text-anchor="middle" x="376.059" y="-56.8" font-family="Times,serif" font-size="14.00">activities</text>
</g>
<!-- Event -->
<g id="node3" class="node"><title>Event</title>
<ellipse fill="none" stroke="black" cx="273.79" cy="-190" rx="30.9706" ry="18"/>
<text text-anchor="middle" x="273.79" y="-185.8" font-family="Times,serif" font-size="14.00">Event</text>
</g>
<!-- Event&#45;&gt;Comment -->
<g id="edge3" class="edge"><title>Event&#45;&gt;Comment</title>
<path fill="none" stroke="#6becee" d="M291.314,-166.806C299.112,-157.803 308.787,-147.727 318.79,-140 327.268,-133.45 337.146,-127.484 346.638,-122.405"/>
<ellipse fill="none" stroke="#6becee" cx="288.567" cy="-170.066" rx="4.00002" ry="4.00002"/>
<polygon fill="#6becee" stroke="#6becee" points="346.668,-122.39 357.62,-121.821 351.115,-120.104 355.563,-117.819 355.563,-117.819 355.563,-117.819 351.115,-120.104 353.505,-113.816 346.668,-122.39 346.668,-122.39"/>
</g>
<!-- Event&#45;&gt;PublicActivity::Activity -->
<g id="edge4" class="edge"><title>Event&#45;&gt;PublicActivity::Activity</title>
<path fill="none" stroke="#9bef5b" d="M273.094,-163.87C273.048,-142.81 274.245,-112.088 280.252,-86 283.458,-72.0747 289.243,-57.3118 294.686,-45.1981"/>
<ellipse fill="none" stroke="#9bef5b" cx="273.134" cy="-167.987" rx="4" ry="4"/>
<polygon fill="#9bef5b" stroke="#9bef5b" points="294.694,-45.1801 303,-38.0202 296.808,-40.6489 298.922,-36.1177 298.922,-36.1177 298.922,-36.1177 296.808,-40.6489 294.844,-34.2152 294.694,-45.1801 294.694,-45.1801"/>
<text text-anchor="middle" x="305.059" y="-99.8" font-family="Times,serif" font-size="14.00">activities</text>
</g>
<!-- ActsAsVotable::Vote -->
<g id="node9" class="node"><title>ActsAsVotable::Vote</title>
<ellipse fill="none" stroke="black" cx="150.79" cy="-104" rx="83.9272" ry="18"/>
<text text-anchor="middle" x="150.79" y="-99.8" font-family="Times,serif" font-size="14.00">ActsAsVotable::Vote</text>
</g>
<!-- Event&#45;&gt;ActsAsVotable::Vote -->
<g id="edge2" class="edge"><title>Event&#45;&gt;ActsAsVotable::Vote</title>
<path fill="none" stroke="#d54654" d="M242.739,-174.665C231.147,-168.825 218.093,-161.647 206.914,-154 196.071,-146.583 184.998,-137.339 175.584,-128.884"/>
<ellipse fill="none" stroke="#d54654" cx="246.524" cy="-176.532" rx="4.00002" ry="4.00002"/>
<polygon fill="#d54654" stroke="#d54654" points="175.477,-128.786 171.15,-118.71 171.792,-125.406 168.108,-122.026 168.108,-122.026 168.108,-122.026 171.792,-125.406 165.066,-125.342 175.477,-128.786 175.477,-128.786"/>
<text text-anchor="middle" x="233.228" y="-142.8" font-family="Times,serif" font-size="14.00">votes_for</text>
</g>
<!-- Follow -->
<g id="node4" class="node"><title>Follow</title>
<ellipse fill="none" stroke="black" cx="395.79" cy="-190" rx="35.3389" ry="18"/>
<text text-anchor="middle" x="395.79" y="-185.8" font-family="Times,serif" font-size="14.00">Follow</text>
</g>
<!-- Follow&#45;&gt;PublicActivity::Activity -->
<g id="edge5" class="edge"><title>Follow&#45;&gt;PublicActivity::Activity</title>
<path fill="none" stroke="#cdcbe1" d="M415.708,-166.915C432.002,-146.04 450.58,-113.857 438.79,-86 428.239,-61.0726 403.979,-45.302 379.166,-35.3787"/>
<ellipse fill="none" stroke="#cdcbe1" cx="413.062" cy="-170.171" rx="4.00002" ry="4.00002"/>
<polygon fill="#cdcbe1" stroke="#cdcbe1" points="379.033,-35.3296 371.22,-27.6352 374.345,-33.5922 369.656,-31.8549 369.656,-31.8549 369.656,-31.8549 374.345,-33.5922 368.092,-36.0745 379.033,-35.3296 379.033,-35.3296"/>
<text text-anchor="middle" x="467.059" y="-99.8" font-family="Times,serif" font-size="14.00">activities</text>
</g>
<!-- Mention -->
<g id="node5" class="node"><title>Mention</title>
<polygon fill="none" stroke="black" stroke-dasharray="1,5" points="412.733,-312.5 348.847,-312.5 348.847,-276.5 412.733,-276.5 412.733,-312.5"/>
<text text-anchor="middle" x="380.79" y="-290.3" font-family="Times,serif" font-size="14.00">Mention</text>
</g>
<!-- Post -->
<g id="node6" class="node"><title>Post</title>
<ellipse fill="none" stroke="black" cx="81.7897" cy="-190" rx="27" ry="18"/>
<text text-anchor="middle" x="81.7897" y="-185.8" font-family="Times,serif" font-size="14.00">Post</text>
</g>
<!-- Post&#45;&gt;Comment -->
<g id="edge7" class="edge"><title>Post&#45;&gt;Comment</title>
<path fill="none" stroke="#ea8e10" d="M111.589,-176.545C116.289,-174.856 121.133,-173.27 125.79,-172 173.161,-159.084 187.093,-165.657 234.79,-154 272.089,-144.884 313.508,-131.063 343.355,-120.42"/>
<ellipse fill="none" stroke="#ea8e10" cx="107.62" cy="-178.039" rx="4.00001" ry="4.00001"/>
<polygon fill="#ea8e10" stroke="#ea8e10" points="343.602,-120.332 354.535,-121.179 348.306,-118.638 353.011,-116.945 353.011,-116.945 353.011,-116.945 348.306,-118.638 351.487,-112.71 343.602,-120.332 343.602,-120.332"/>
</g>
<!-- Post&#45;&gt;PublicActivity::Activity -->
<g id="edge8" class="edge"><title>Post&#45;&gt;PublicActivity::Activity</title>
<path fill="none" stroke="#a5d270" d="M55.4127,-172.647C25.4108,-152.018 -16.5216,-115.657 7.25157,-86 32.6908,-54.265 134.073,-36.5846 212.129,-27.4631"/>
<ellipse fill="none" stroke="#a5d270" cx="59.0336" cy="-175.069" rx="4.00002" ry="4.00002"/>
<polygon fill="#a5d270" stroke="#a5d270" points="212.556,-27.4146 223,-30.757 217.524,-26.8502 222.492,-26.2857 222.492,-26.2857 222.492,-26.2857 217.524,-26.8502 221.984,-21.8145 212.556,-27.4146 212.556,-27.4146"/>
<text text-anchor="middle" x="33.0587" y="-99.8" font-family="Times,serif" font-size="14.00">activities</text>
</g>
<!-- Post&#45;&gt;ActsAsVotable::Vote -->
<g id="edge6" class="edge"><title>Post&#45;&gt;ActsAsVotable::Vote</title>
<path fill="none" stroke="#ce16e9" d="M76.169,-163.77C75.6627,-155.665 76.6003,-146.985 80.9137,-140 84.6497,-133.95 89.7844,-128.911 95.5886,-124.721"/>
<ellipse fill="none" stroke="#ce16e9" cx="76.6655" cy="-167.942" rx="4.00001" ry="4.00001"/>
<polygon fill="#ce16e9" stroke="#ce16e9" points="96.001,-124.464 106.868,-122.991 100.244,-121.818 104.486,-119.173 104.486,-119.173 104.486,-119.173 100.244,-121.818 102.105,-115.354 96.001,-124.464 96.001,-124.464"/>
<text text-anchor="middle" x="107.228" y="-142.8" font-family="Times,serif" font-size="14.00">votes_for</text>
</g>
<!-- User -->
<g id="node7" class="node"><title>User</title>
<ellipse fill="none" stroke="black" cx="303.79" cy="-294.5" rx="27" ry="18"/>
<text text-anchor="middle" x="303.79" y="-290.3" font-family="Times,serif" font-size="14.00">User</text>
</g>
<!-- User&#45;&gt;Comment -->
<g id="edge13" class="edge"><title>User&#45;&gt;Comment</title>
<path fill="none" stroke="#2f3d40" d="M312.791,-269.018C322.033,-244.307 337.101,-205.163 351.79,-172 357.839,-158.342 365.127,-143.408 371.313,-131.113"/>
<ellipse fill="none" stroke="#2f3d40" cx="311.284" cy="-273.067" rx="4.00001" ry="4.00001"/>
<polygon fill="#2f3d40" stroke="#2f3d40" points="371.467,-130.81 380.006,-123.93 373.73,-126.351 375.994,-121.893 375.994,-121.893 375.994,-121.893 373.73,-126.351 371.981,-119.856 371.467,-130.81 371.467,-130.81"/>
</g>
<!-- User&#45;&gt;Event -->
<g id="edge14" class="edge"><title>User&#45;&gt;Event</title>
<path fill="none" stroke="#9768c0" d="M296.531,-268.699C292.012,-253.261 286.203,-233.411 281.586,-217.639"/>
<ellipse fill="none" stroke="#9768c0" cx="297.712" cy="-272.735" rx="4.00001" ry="4.00001"/>
<polygon fill="#9768c0" stroke="#9768c0" points="281.56,-217.548 283.07,-206.687 280.155,-212.75 278.751,-207.951 278.751,-207.951 278.751,-207.951 280.155,-212.75 274.432,-209.215 281.56,-217.548 281.56,-217.548"/>
</g>
<!-- User&#45;&gt;Follow -->
<g id="edge10" class="edge"><title>User&#45;&gt;Follow</title>
<path fill="none" stroke="#fbb54b" d="M322.731,-272.397C337.884,-255.515 359.114,-231.861 374.786,-214.401"/>
<ellipse fill="none" stroke="#fbb54b" cx="320.036" cy="-275.399" rx="4.00002" ry="4.00002"/>
<polygon fill="#fbb54b" stroke="#fbb54b" points="374.874,-214.303 384.902,-209.867 378.214,-210.582 381.553,-206.861 381.553,-206.861 381.553,-206.861 378.214,-210.582 378.204,-203.855 374.874,-214.303 374.874,-214.303"/>
</g>
<!-- User&#45;&gt;Follow -->
<g id="edge11" class="edge"><title>User&#45;&gt;Follow</title>
<path fill="none" stroke="#2b073f" d="M322.846,-272.849C328.087,-267.702 333.943,-262.402 339.79,-258 352.825,-248.185 360.584,-251.862 371.79,-240 377.894,-233.538 382.748,-225.229 386.448,-217.296"/>
<ellipse fill="none" stroke="#2b073f" cx="319.825" cy="-275.909" rx="4.00002" ry="4.00002"/>
<polygon fill="#2b073f" stroke="#2b073f" points="386.503,-217.165 394.541,-209.706 388.449,-212.56 390.395,-207.954 390.395,-207.954 390.395,-207.954 388.449,-212.56 386.25,-206.203 386.503,-217.165 386.503,-217.165"/>
<text text-anchor="middle" x="410.734" y="-228.8" font-family="Times,serif" font-size="14.00">followings</text>
</g>
<!-- User&#45;&gt;Post -->
<g id="edge12" class="edge"><title>User&#45;&gt;Post</title>
<path fill="none" stroke="#8b4409" d="M286.61,-272.118C281.164,-266.674 274.735,-261.406 267.79,-258 213.838,-231.54 188.038,-265.846 133.79,-240 121.065,-233.938 109.392,-223.604 100.344,-213.985"/>
<ellipse fill="none" stroke="#8b4409" cx="289.383" cy="-275.09" rx="4.00002" ry="4.00002"/>
<polygon fill="#8b4409" stroke="#8b4409" points="100.339,-213.979 97.0376,-203.522 97.0098,-210.249 93.6804,-206.519 93.6804,-206.519 93.6804,-206.519 97.0098,-210.249 90.3231,-209.515 100.339,-213.979 100.339,-213.979"/>
</g>
<!-- User&#45;&gt;ActsAsVotable::Vote -->
<g id="edge9" class="edge"><title>User&#45;&gt;ActsAsVotable::Vote</title>
<path fill="none" stroke="#99abf6" d="M283.976,-273.178C278.814,-268.104 273.185,-262.756 267.79,-258 240.83,-234.235 227.154,-235.685 204.238,-208 184.966,-184.717 169.926,-153.35 160.777,-131.37"/>
<ellipse fill="none" stroke="#99abf6" cx="286.943" cy="-276.134" rx="4.00002" ry="4.00002"/>
<polygon fill="#99abf6" stroke="#99abf6" points="160.736,-131.267 161.166,-120.31 158.864,-126.631 156.993,-121.994 156.993,-121.994 156.993,-121.994 158.864,-126.631 152.82,-123.678 160.736,-131.267 160.736,-131.267"/>
<text text-anchor="middle" x="218.566" y="-185.8" font-family="Times,serif" font-size="14.00">votes</text>
</g>
</g>
</svg>
